<svg id="Layer_1" data-name="Layer 1" xmlns="http://www.w3.org/2000/svg" viewBox="0 0 169.66 169.67"><defs><style>.cls-1{fill:#fff;}.cls-2{fill:#36f;}</style></defs><path class="cls-1" d="M101.44,107.69V63.75h32.21c19.6,0,28.7,15,28.7,34.21,0,23.8-12.1,37.6-29.3,37.6H111.26Zm14.7-31.54v47h14.91c9.9,0,16-9.2,16-24.2,0-13.61-4.2-22.81-15.91-22.81Z" transform="translate(-15.61 -14.82)"/><path class="cls-2" d="M116.14,123.16v-47h15c11.71,0,15.91,9.2,15.91,22.81,0,15-6.1,24.2-16,24.2Z" transform="translate(-15.61 -14.82)"/><path class="cls-2" d="M15.61,36.2A21.38,21.38,0,0,1,37,14.82h126.9A21.38,21.38,0,0,1,185.27,36.2V163.11a21.38,21.38,0,0,1-21.38,21.38H37a21.38,21.38,0,0,1-21.38-21.38Zm76.83,99.36h16.3L83.44,63.75H66.14L40.53,135.56h15.8l5-14.8H87.84Zm18.82,0h21.79c17.2,0,29.3-13.8,29.3-37.6,0-19.21-9.1-34.21-28.7-34.21H101.44v43.94Z" transform="translate(-15.61 -14.82)"/><polygon class="cls-2" points="49.73 93.54 58.93 65.13 59.13 65.13 68.03 93.54 49.73 93.54"/><path class="cls-1" d="M65.34,108.36h18.3L74.74,80h-.2Zm43.4,27.2H92.44l-4.6-14.8H61.33l-5,14.8H40.53L66.14,63.75h17.3Z" transform="translate(-15.61 -14.82)"/></svg>